<svg width="289" height="88" viewBox="0 0 289 88" fill="none" xmlns="http://www.w3.org/2000/svg">
<path d="M115.895 62H111.278L124.631 25.6364H129.176L142.528 62H137.912L127.045 31.3892H126.761L115.895 62ZM117.599 47.7955H136.207V51.7017H117.599V47.7955ZM147.624 62V34.7273H151.673V38.8466H151.957C152.454 37.4972 153.353 36.4022 154.656 35.5618C155.958 34.7214 157.425 34.3011 159.059 34.3011C159.367 34.3011 159.751 34.3071 160.213 34.3189C160.675 34.3307 161.024 34.3485 161.261 34.3722V38.6335C161.119 38.598 160.793 38.5447 160.284 38.4737C159.787 38.3909 159.26 38.3494 158.704 38.3494C157.378 38.3494 156.194 38.6276 155.153 39.1839C154.123 39.7285 153.306 40.486 152.702 41.4567C152.111 42.4155 151.815 43.5104 151.815 44.7415V62H147.624ZM176.477 62.5682C173.92 62.5682 171.719 61.9645 169.872 60.7571C168.026 59.5497 166.605 57.8866 165.611 55.7678C164.616 53.6489 164.119 51.2282 164.119 48.5057C164.119 45.7358 164.628 43.2914 165.646 41.1726C166.676 39.0419 168.108 37.3788 169.943 36.1832C171.79 34.9759 173.944 34.3722 176.406 34.3722C178.324 34.3722 180.052 34.7273 181.591 35.4375C183.13 36.1477 184.39 37.142 185.373 38.4205C186.355 39.6989 186.965 41.1903 187.202 42.8949H183.011C182.692 41.652 181.982 40.5511 180.881 39.5923C179.792 38.6217 178.324 38.1364 176.477 38.1364C174.844 38.1364 173.411 38.5625 172.18 39.4148C170.961 40.2552 170.008 41.4448 169.322 42.9837C168.647 44.5107 168.31 46.304 168.31 48.3636C168.31 50.4706 168.641 52.3054 169.304 53.8679C169.979 55.4304 170.926 56.6437 172.145 57.5078C173.376 58.3719 174.82 58.804 176.477 58.804C177.566 58.804 178.555 58.6146 179.442 58.2358C180.33 57.857 181.082 57.3125 181.697 56.6023C182.313 55.892 182.751 55.0398 183.011 54.0455H187.202C186.965 55.6553 186.379 57.1054 185.444 58.3956C184.521 59.674 183.295 60.692 181.768 61.4496C180.253 62.1953 178.49 62.5682 176.477 62.5682ZM201.353 62.6392C199.625 62.6392 198.056 62.3137 196.648 61.6626C195.239 60.9998 194.121 60.0469 193.292 58.804C192.463 57.5492 192.049 56.0341 192.049 54.2585C192.049 52.696 192.357 51.4295 192.972 50.4588C193.588 49.4763 194.411 48.7069 195.44 48.1506C196.47 47.5942 197.607 47.1799 198.849 46.9077C200.104 46.6236 201.365 46.3987 202.631 46.233C204.289 46.0199 205.632 45.8601 206.662 45.7536C207.704 45.6352 208.461 45.4399 208.935 45.1676C209.42 44.8954 209.663 44.4219 209.663 43.7472V43.6051C209.663 41.8532 209.183 40.492 208.224 39.5213C207.277 38.5507 205.839 38.0653 203.91 38.0653C201.909 38.0653 200.341 38.5033 199.205 39.3793C198.068 40.2552 197.269 41.1903 196.808 42.1847L192.83 40.7642C193.54 39.107 194.487 37.8168 195.671 36.8935C196.867 35.9583 198.169 35.3073 199.577 34.9403C200.998 34.5616 202.395 34.3722 203.768 34.3722C204.644 34.3722 205.65 34.4787 206.786 34.6918C207.934 34.893 209.041 35.3132 210.107 35.9524C211.184 36.5916 212.077 37.5563 212.788 38.8466C213.498 40.1368 213.853 41.8651 213.853 44.0312V62H209.663V58.3068H209.45C209.165 58.8987 208.692 59.532 208.029 60.2067C207.366 60.8814 206.484 61.4555 205.384 61.929C204.283 62.4025 202.939 62.6392 201.353 62.6392ZM201.992 58.875C203.649 58.875 205.046 58.5495 206.183 57.8984C207.331 57.2474 208.195 56.407 208.775 55.3771C209.367 54.3473 209.663 53.2642 209.663 52.1278V48.2926C209.485 48.5057 209.094 48.701 208.491 48.8786C207.899 49.0443 207.212 49.1922 206.431 49.3224C205.662 49.4408 204.91 49.5473 204.176 49.642C203.454 49.7249 202.868 49.7959 202.418 49.8551C201.329 49.9972 200.311 50.228 199.364 50.5476C198.429 50.8554 197.672 51.3229 197.092 51.9503C196.523 52.5658 196.239 53.4062 196.239 54.4716C196.239 55.9276 196.778 57.0284 197.855 57.7741C198.944 58.508 200.323 58.875 201.992 58.875ZM231.8 62.5682C229.527 62.5682 227.52 61.9941 225.78 60.8459C224.04 59.6858 222.679 58.0523 221.697 55.9453C220.714 53.8265 220.223 51.3229 220.223 48.4347C220.223 45.5701 220.714 43.0843 221.697 40.9773C222.679 38.8703 224.046 37.2427 225.798 36.0945C227.55 34.9463 229.574 34.3722 231.871 34.3722C233.646 34.3722 235.049 34.6681 236.079 35.2599C237.12 35.84 237.913 36.5028 238.458 37.2486C239.014 37.9825 239.446 38.5862 239.754 39.0597H240.109V25.6364H244.3V62H240.251V57.8097H239.754C239.446 58.3068 239.008 58.9342 238.44 59.6918C237.872 60.4375 237.061 61.1063 236.008 61.6982C234.954 62.2782 233.551 62.5682 231.8 62.5682ZM232.368 58.804C234.049 58.804 235.469 58.366 236.629 57.4901C237.789 56.6023 238.671 55.3771 239.275 53.8146C239.878 52.2403 240.18 50.4233 240.18 48.3636C240.18 46.3277 239.884 44.5462 239.292 43.0192C238.701 41.4804 237.825 40.2848 236.665 39.4325C235.505 38.5684 234.072 38.1364 232.368 38.1364C230.592 38.1364 229.113 38.5921 227.929 39.5036C226.757 40.4032 225.875 41.6283 225.283 43.179C224.703 44.7178 224.413 46.446 224.413 48.3636C224.413 50.3049 224.709 52.0687 225.301 53.6548C225.905 55.2292 226.792 56.4839 227.964 57.419C229.148 58.3423 230.616 58.804 232.368 58.804ZM252.556 62V34.7273H256.746V62H252.556ZM254.687 30.1818C253.87 30.1818 253.166 29.9036 252.574 29.3473C251.994 28.791 251.704 28.1222 251.704 27.3409C251.704 26.5597 251.994 25.8909 252.574 25.3345C253.166 24.7782 253.87 24.5 254.687 24.5C255.503 24.5 256.202 24.7782 256.782 25.3345C257.374 25.8909 257.67 26.5597 257.67 27.3409C257.67 28.1222 257.374 28.791 256.782 29.3473C256.202 29.9036 255.503 30.1818 254.687 30.1818ZM272.447 62.6392C270.719 62.6392 269.15 62.3137 267.741 61.6626C266.333 60.9998 265.214 60.0469 264.386 58.804C263.557 57.5492 263.143 56.0341 263.143 54.2585C263.143 52.696 263.451 51.4295 264.066 50.4588C264.682 49.4763 265.504 48.7069 266.534 48.1506C267.564 47.5942 268.7 47.1799 269.943 46.9077C271.198 46.6236 272.459 46.3987 273.725 46.233C275.382 46.0199 276.726 45.8601 277.756 45.7536C278.797 45.6352 279.555 45.4399 280.028 45.1676C280.514 44.8954 280.756 44.4219 280.756 43.7472V43.6051C280.756 41.8532 280.277 40.492 279.318 39.5213C278.371 38.5507 276.933 38.0653 275.004 38.0653C273.003 38.0653 271.435 38.5033 270.298 39.3793C269.162 40.2552 268.363 41.1903 267.901 42.1847L263.924 40.7642C264.634 39.107 265.581 37.8168 266.765 36.8935C267.96 35.9583 269.263 35.3073 270.671 34.9403C272.092 34.5616 273.488 34.3722 274.862 34.3722C275.737 34.3722 276.744 34.4787 277.88 34.6918C279.028 34.893 280.135 35.3132 281.2 35.9524C282.277 36.5916 283.171 37.5563 283.881 38.8466C284.592 40.1368 284.947 41.8651 284.947 44.0312V62H280.756V58.3068H280.543C280.259 58.8987 279.786 59.532 279.123 60.2067C278.46 60.8814 277.578 61.4555 276.477 61.929C275.376 62.4025 274.033 62.6392 272.447 62.6392ZM273.086 58.875C274.743 58.875 276.14 58.5495 277.276 57.8984C278.424 57.2474 279.289 56.407 279.869 55.3771C280.46 54.3473 280.756 53.2642 280.756 52.1278V48.2926C280.579 48.5057 280.188 48.701 279.585 48.8786C278.993 49.0443 278.306 49.1922 277.525 49.3224C276.755 49.4408 276.004 49.5473 275.27 49.642C274.548 49.7249 273.962 49.7959 273.512 49.8551C272.423 49.9972 271.405 50.228 270.458 50.5476C269.523 50.8554 268.765 51.3229 268.185 51.9503C267.617 52.5658 267.333 53.4062 267.333 54.4716C267.333 55.9276 267.872 57.0284 268.949 57.7741C270.038 58.508 271.417 58.875 273.086 58.875Z" fill="black"/>
<path d="M169.483 75.0739L168.429 75.3722C168.363 75.1965 168.265 75.0258 168.136 74.8601C168.01 74.6911 167.837 74.5518 167.619 74.4425C167.4 74.3331 167.12 74.2784 166.778 74.2784C166.311 74.2784 165.922 74.3861 165.61 74.6016C165.302 74.8137 165.148 75.0838 165.148 75.4119C165.148 75.7036 165.254 75.9339 165.466 76.103C165.678 76.272 166.009 76.4129 166.46 76.5256L167.594 76.804C168.277 76.9697 168.785 77.2232 169.12 77.5646C169.455 77.9027 169.622 78.3385 169.622 78.8722C169.622 79.3097 169.496 79.7008 169.244 80.0455C168.996 80.3902 168.648 80.6619 168.2 80.8608C167.753 81.0597 167.232 81.1591 166.639 81.1591C165.86 81.1591 165.216 80.9901 164.705 80.652C164.195 80.3139 163.872 79.8201 163.736 79.1705L164.849 78.892C164.955 79.303 165.156 79.6113 165.451 79.8168C165.749 80.0223 166.139 80.125 166.619 80.125C167.166 80.125 167.6 80.009 167.922 79.777C168.247 79.5417 168.409 79.2599 168.409 78.9318C168.409 78.6667 168.316 78.4446 168.131 78.2656C167.945 78.0833 167.66 77.9474 167.276 77.858L166.003 77.5597C165.304 77.3939 164.79 77.1371 164.462 76.7891C164.137 76.4377 163.974 75.9986 163.974 75.4716C163.974 75.0407 164.095 74.6596 164.337 74.3281C164.583 73.9967 164.916 73.7365 165.337 73.5476C165.761 73.3587 166.241 73.2642 166.778 73.2642C167.534 73.2642 168.127 73.4299 168.558 73.7614C168.992 74.0928 169.301 74.5303 169.483 75.0739ZM171.388 81V73.3636H172.562V81H171.388ZM171.985 72.0909C171.756 72.0909 171.559 72.013 171.393 71.8572C171.231 71.7015 171.15 71.5142 171.15 71.2955C171.15 71.0767 171.231 70.8894 171.393 70.7337C171.559 70.5779 171.756 70.5 171.985 70.5C172.214 70.5 172.409 70.5779 172.572 70.7337C172.737 70.8894 172.82 71.0767 172.82 71.2955C172.82 71.5142 172.737 71.7015 172.572 71.8572C172.409 72.013 172.214 72.0909 171.985 72.0909ZM175.884 76.4062V81H174.711V73.3636H175.844V74.5568H175.944C176.123 74.169 176.394 73.8575 176.759 73.6222C177.123 73.3835 177.594 73.2642 178.171 73.2642C178.688 73.2642 179.14 73.3703 179.528 73.5824C179.916 73.7912 180.217 74.1094 180.433 74.5369C180.648 74.9612 180.756 75.4981 180.756 76.1477V81H179.583V76.2273C179.583 75.6274 179.427 75.16 179.115 74.8253C178.804 74.4872 178.376 74.3182 177.833 74.3182C177.458 74.3182 177.123 74.3994 176.828 74.5618C176.537 74.7242 176.306 74.9612 176.137 75.2727C175.968 75.5843 175.884 75.9621 175.884 76.4062ZM186.002 81.1591C185.286 81.1591 184.67 80.9901 184.153 80.652C183.636 80.3139 183.238 79.8482 182.96 79.255C182.681 78.6617 182.542 77.9839 182.542 77.2216C182.542 76.446 182.685 75.7616 182.97 75.1683C183.258 74.5717 183.659 74.1061 184.173 73.7713C184.69 73.4332 185.293 73.2642 185.982 73.2642C186.519 73.2642 187.003 73.3636 187.434 73.5625C187.865 73.7614 188.218 74.0398 188.493 74.3977C188.768 74.7557 188.939 75.1733 189.005 75.6506H187.832C187.742 75.3026 187.544 74.9943 187.235 74.7259C186.93 74.4541 186.519 74.3182 186.002 74.3182C185.545 74.3182 185.144 74.4375 184.799 74.6761C184.458 74.9115 184.191 75.2446 183.999 75.6754C183.81 76.103 183.715 76.6051 183.715 77.1818C183.715 77.7718 183.808 78.2855 183.994 78.723C184.183 79.1605 184.448 79.5002 184.789 79.7422C185.134 79.9841 185.538 80.1051 186.002 80.1051C186.307 80.1051 186.584 80.0521 186.833 79.946C187.081 79.84 187.292 79.6875 187.464 79.4886C187.636 79.2898 187.759 79.0511 187.832 78.7727H189.005C188.939 79.2235 188.775 79.6295 188.513 79.9908C188.254 80.3487 187.911 80.6338 187.484 80.8459C187.06 81.0547 186.566 81.1591 186.002 81.1591ZM193.922 81.1591C193.186 81.1591 192.552 80.9967 192.018 80.6719C191.488 80.3438 191.078 79.8864 190.79 79.2997C190.505 78.7098 190.362 78.0237 190.362 77.2415C190.362 76.4593 190.505 75.7699 190.79 75.1733C191.078 74.5734 191.479 74.1061 191.993 73.7713C192.51 73.4332 193.113 73.2642 193.803 73.2642C194.2 73.2642 194.593 73.3305 194.981 73.4631C195.369 73.5956 195.722 73.8111 196.04 74.1094C196.358 74.4044 196.612 74.7955 196.801 75.2827C196.99 75.7699 197.084 76.3698 197.084 77.0824V77.5795H191.198V76.5653H195.891C195.891 76.1345 195.805 75.75 195.632 75.4119C195.463 75.0739 195.221 74.8071 194.906 74.6115C194.595 74.416 194.227 74.3182 193.803 74.3182C193.335 74.3182 192.931 74.4342 192.59 74.6662C192.252 74.8949 191.991 75.1932 191.809 75.5611C191.627 75.929 191.536 76.3234 191.536 76.7443V77.4205C191.536 77.9972 191.635 78.486 191.834 78.8871C192.036 79.2848 192.316 79.5881 192.674 79.7969C193.032 80.0024 193.448 80.1051 193.922 80.1051C194.23 80.1051 194.509 80.062 194.757 79.9759C195.009 79.8864 195.226 79.7538 195.409 79.5781C195.591 79.3991 195.732 79.1771 195.831 78.9119L196.965 79.2301C196.845 79.6146 196.645 79.9527 196.363 80.2443C196.081 80.5327 195.733 80.758 195.319 80.9205C194.905 81.0795 194.439 81.1591 193.922 81.1591ZM206.366 70.8182V81H205.133V72.1108H205.073L202.588 73.7614V72.5085L205.133 70.8182H206.366ZM212.536 70.679C212.953 70.6823 213.371 70.7618 213.789 70.9176C214.206 71.0734 214.587 71.3319 214.932 71.6932C215.277 72.0511 215.553 72.54 215.762 73.1598C215.971 73.7796 216.075 74.5568 216.075 75.4915C216.075 76.3963 215.989 77.2 215.817 77.9027C215.648 78.602 215.403 79.192 215.081 79.6726C214.763 80.1532 214.375 80.5178 213.918 80.7663C213.464 81.0149 212.95 81.1392 212.377 81.1392C211.807 81.1392 211.298 81.0265 210.85 80.8011C210.406 80.5724 210.042 80.2559 209.757 79.8516C209.475 79.4439 209.294 78.9716 209.215 78.4347H210.428C210.537 78.902 210.754 79.2881 211.079 79.593C211.407 79.8946 211.84 80.0455 212.377 80.0455C213.162 80.0455 213.782 79.7024 214.236 79.0163C214.693 78.3303 214.922 77.3608 214.922 76.108H214.843C214.657 76.3864 214.436 76.6267 214.181 76.8288C213.926 77.031 213.643 77.1868 213.331 77.2962C213.02 77.4055 212.688 77.4602 212.337 77.4602C211.753 77.4602 211.218 77.3161 210.731 77.0277C210.247 76.736 209.859 76.3366 209.568 75.8295C209.279 75.3191 209.135 74.7358 209.135 74.0795C209.135 73.4564 209.274 72.8864 209.553 72.3693C209.834 71.849 210.229 71.4347 210.736 71.1264C211.246 70.8182 211.846 70.669 212.536 70.679ZM212.536 71.7727C212.118 71.7727 211.742 71.8771 211.407 72.0859C211.076 72.2914 210.812 72.5698 210.617 72.9212C210.424 73.2692 210.328 73.6553 210.328 74.0795C210.328 74.5038 210.421 74.8899 210.607 75.2379C210.796 75.5826 211.052 75.8577 211.377 76.0632C211.705 76.2654 212.078 76.3665 212.496 76.3665C212.811 76.3665 213.104 76.3052 213.376 76.1825C213.648 76.0566 213.885 75.8859 214.087 75.6705C214.292 75.4517 214.453 75.2048 214.569 74.9297C214.685 74.6513 214.743 74.3613 214.743 74.0597C214.743 73.6619 214.647 73.2891 214.455 72.9411C214.266 72.593 214.004 72.3113 213.669 72.0959C213.338 71.8804 212.96 71.7727 212.536 71.7727ZM221.411 81.1392C220.994 81.1326 220.576 81.053 220.158 80.9006C219.741 80.7481 219.36 80.4912 219.015 80.13C218.67 79.7654 218.393 79.2732 218.185 78.6534C217.976 78.0303 217.871 77.2481 217.871 76.3068C217.871 75.4053 217.956 74.6065 218.125 73.9105C218.294 73.2112 218.539 72.6229 218.861 72.1456C219.182 71.665 219.57 71.3004 220.024 71.0518C220.482 70.8033 220.997 70.679 221.57 70.679C222.14 70.679 222.647 70.7933 223.092 71.022C223.539 71.2474 223.904 71.5623 224.185 71.9666C224.467 72.371 224.649 72.8366 224.732 73.3636H223.519C223.406 72.9062 223.188 72.5268 222.863 72.2251C222.538 71.9235 222.107 71.7727 221.57 71.7727C220.781 71.7727 220.16 72.1158 219.706 72.8018C219.255 73.4879 219.028 74.4508 219.025 75.6903H219.104C219.29 75.4086 219.51 75.1683 219.766 74.9695C220.024 74.7673 220.309 74.6115 220.621 74.5021C220.932 74.3928 221.262 74.3381 221.61 74.3381C222.193 74.3381 222.727 74.4839 223.211 74.7756C223.695 75.0639 224.083 75.4633 224.374 75.9737C224.666 76.4808 224.812 77.0625 224.812 77.7188C224.812 78.3485 224.671 78.9252 224.389 79.4489C224.107 79.9692 223.711 80.3835 223.201 80.6918C222.694 80.9967 222.097 81.1458 221.411 81.1392ZM221.411 80.0455C221.829 80.0455 222.203 79.9411 222.535 79.7322C222.87 79.5234 223.133 79.2434 223.325 78.892C223.521 78.5407 223.619 78.1496 223.619 77.7188C223.619 77.2978 223.524 76.915 223.335 76.5703C223.15 76.2223 222.893 75.9455 222.565 75.7401C222.24 75.5346 221.869 75.4318 221.451 75.4318C221.136 75.4318 220.843 75.4948 220.571 75.6207C220.299 75.7434 220.061 75.9124 219.855 76.1278C219.653 76.3433 219.494 76.5902 219.378 76.8686C219.262 77.1437 219.204 77.4337 219.204 77.7386C219.204 78.143 219.298 78.5208 219.487 78.8722C219.679 79.2235 219.941 79.5069 220.273 79.7223C220.607 79.9377 220.987 80.0455 221.411 80.0455ZM230.088 81.1392C229.339 81.1392 228.701 80.9354 228.174 80.5277C227.647 80.1167 227.244 79.5218 226.966 78.7429C226.687 77.9607 226.548 77.0161 226.548 75.9091C226.548 74.8087 226.687 73.8691 226.966 73.0902C227.247 72.308 227.652 71.7114 228.179 71.3004C228.709 70.8861 229.345 70.679 230.088 70.679C230.83 70.679 231.465 70.8861 231.992 71.3004C232.522 71.7114 232.927 72.308 233.205 73.0902C233.487 73.8691 233.628 74.8087 233.628 75.9091C233.628 77.0161 233.488 77.9607 233.21 78.7429C232.932 79.5218 232.529 80.1167 232.002 80.5277C231.475 80.9354 230.837 81.1392 230.088 81.1392ZM230.088 80.0455C230.83 80.0455 231.407 79.6875 231.818 78.9716C232.229 78.2557 232.434 77.2348 232.434 75.9091C232.434 75.0275 232.34 74.2768 232.151 73.657C231.965 73.0372 231.697 72.5649 231.346 72.2401C230.998 71.9152 230.578 71.7528 230.088 71.7528C229.352 71.7528 228.777 72.1158 228.363 72.8416C227.948 73.5642 227.741 74.5866 227.741 75.9091C227.741 76.7907 227.834 77.5398 228.02 78.1562C228.205 78.7727 228.472 79.2417 228.82 79.5632C229.171 79.8847 229.594 80.0455 230.088 80.0455Z" fill="black"/>
<g clip-path="url(#clip0_52_200)">
<path d="M14.9865 83.9025C14.6653 83.4975 14.4641 83.2367 14.2536 82.9833C10.0076 77.8801 7.71099 71.9704 6.96331 65.4059C4.77751 46.2305 17.5139 30.7803 34.6975 26.5612C35.7904 26.293 36.5049 25.7566 37.1731 24.8595C39.9165 21.1842 42.73 17.5607 45.5693 13.9595C46.1379 13.2381 46.2948 12.7701 45.728 11.9119C43.8118 9.00606 44.3638 4.57057 46.8154 2.06983C47.7108 1.15609 48.7926 0.926736 49.952 1.31701C51.1058 1.70544 52.2116 2.2363 53.3654 2.71536C53.3839 2.68022 53.443 2.60808 53.4614 2.52854C54.0411 5.59246e-05 55.9075 -0.745358 57.9826 0.810208C58.7321 1.3725 59.3985 2.10497 59.9339 2.87998C60.5874 3.82701 61.3997 4.18769 62.5166 4.35046C70.2408 5.4769 77.6363 7.6743 84.55 11.3755C86.0361 12.1708 87.3266 13.1918 88.305 14.5865C89.1801 15.8332 89.6711 17.2149 89.649 18.7371C89.6195 20.8938 89.6195 23.0579 89.4348 25.2035C89.1782 28.1963 87.5093 30.279 84.9617 31.7994C81.6572 33.773 78.1902 35.1492 74.3022 35.299C74.0309 35.3101 73.7632 35.3859 73.3736 35.4507C73.4696 35.9741 73.5453 36.4754 73.6524 36.9711C75.2844 44.4826 75.0979 51.8868 72.5097 59.1929C70.8518 63.8707 69.3768 68.6132 68.8968 73.587C68.6734 75.9157 68.6236 78.2592 68.5017 80.5972C68.4944 80.7433 68.5571 80.8932 68.6051 81.1262C69.4968 81.1724 70.3811 81.2298 71.2654 81.2612C72.7718 81.3149 73.8665 81.9881 74.3798 83.4272C74.5884 84.0117 74.9576 84.0357 75.445 84.0357C79.3827 84.0357 83.3205 84.0468 87.2564 84.0635C87.777 84.0653 88.3069 84.0764 88.8164 84.1707C89.6342 84.3243 90.0219 84.9125 89.9942 85.7041C89.9684 86.4828 89.5068 86.9767 88.7149 87.0174C87.334 87.0877 85.9494 87.1395 84.5685 87.1395C57.3752 87.1524 30.1819 87.158 2.98862 87.1617C2.43663 87.1617 1.87726 87.158 1.33265 87.0747C0.505594 86.9452 -0.0371636 86.309 -0.0020874 85.5561C0.0348349 84.7219 0.518517 84.2503 1.32342 84.156C1.96218 84.0801 2.61201 84.0616 3.25631 84.0561C6.79347 84.0228 10.3306 84.0024 13.8678 83.9728C14.1705 83.971 14.4733 83.9377 14.9828 83.9062L14.9865 83.9025ZM33.6618 36.3625C33.5289 33.9191 34.4889 31.8586 35.4876 29.6039C27.5253 31.8327 21.0196 35.8298 16.12 42.2759C12.9983 46.3822 9.77679 54.5262 10.1534 57.1269C10.818 56.559 11.5103 55.969 12.2044 55.3771C12.2709 55.4289 12.3355 55.4788 12.402 55.5306C11.3884 58.6325 10.9288 61.8287 10.8586 65.0674C10.7885 68.3154 11.4992 71.4247 12.6955 74.3916V66.1865C12.9392 66.1495 13.0832 66.1125 13.229 66.1107C13.3767 66.1107 13.5226 66.1421 13.4524 66.1347C14.0782 68.9721 14.5619 71.7299 15.3151 74.4119C16.0813 77.142 17.5194 79.5503 19.5944 81.7125C19.2806 80.0405 19 78.5422 18.7175 77.0422L19.0554 76.9515C19.2492 77.2549 19.4615 77.5508 19.6369 77.8652C20.7686 79.9036 22.1642 81.7403 23.9236 83.2644C24.3685 83.6491 25.0552 83.9469 25.6331 83.9506C31.2933 83.9913 36.9535 83.9617 42.6137 83.9451C42.9607 83.9451 43.3059 83.8933 43.6659 83.8656C43.3539 82.3988 42.6487 81.8328 41.1534 81.8254C37.5848 81.805 34.0163 81.8069 30.4477 81.7939C30.0951 81.7939 29.7407 81.7495 29.2219 81.7125C30.1376 78.1427 31.0182 74.7042 31.9006 71.2675C32.004 71.2638 32.1074 71.2601 32.2108 71.2564C32.5339 73.8977 32.8551 76.5372 33.2058 79.4134C35.1313 78.1723 34.9209 75.8547 35.9455 74.2677C36.0507 74.2732 36.1541 74.2769 36.2593 74.2825V78.8271C36.4162 78.853 36.575 78.8789 36.7319 78.9048C37.1528 77.8375 37.8599 76.7906 37.9393 75.6974C38.135 73.0376 38.1276 70.3538 38.0279 67.6866C37.9725 66.1976 37.5701 64.7197 37.3245 63.2381C37.4205 63.2011 37.5165 63.1641 37.6144 63.1272C38.6703 65.6408 39.7263 68.1564 40.7897 70.6867C41.1165 68.7205 41.2291 66.7432 40.8321 64.7567C39.2537 56.8383 31.7733 51.0988 23.6743 51.5908C22.5279 51.6611 21.3833 51.7332 20.2369 51.8035C23.4473 49.2103 27.073 48.5925 30.9813 49.3916C34.8692 50.1888 37.8377 52.4509 40.3429 55.7396C40.2008 48.8293 40.6605 45.8014 42.1558 44.625C41.4044 54.7852 45.1908 63.6987 48.6671 72.688C48.8332 72.6696 48.9975 72.6492 49.1637 72.6307V67.0947C49.2689 67.0891 49.3741 67.0854 49.4794 67.0799C50.0092 68.9406 50.5464 70.7995 51.0689 72.664C51.5009 74.2048 52.0953 75.727 52.3021 77.3011C52.6122 79.6483 53.5851 81.646 54.9051 83.5308C55.0196 83.6935 55.2245 83.8933 55.3906 83.8988C56.5352 83.9303 57.6798 83.9155 59.0681 83.9155C58.5678 83.1164 58.1764 82.5726 57.8736 81.9807C57.641 81.5294 57.3789 81.0208 57.3715 80.5343C57.2552 72.4291 57.174 64.3239 57.0946 56.2187C57.0909 55.8191 57.1629 55.4178 57.2017 55.0164C57.2866 55.0164 57.3733 55.0164 57.4583 55.0164C58.4404 57.5319 58.7764 60.1769 58.9573 62.8867C59.2453 62.0765 59.4742 61.2608 59.6127 60.4303C59.7345 59.7016 60.0761 59.413 60.9751 59.6387V67.9677C64.2391 64.938 66.3418 61.3071 67.8408 57.2286C68.0107 57.8223 68.1805 58.4179 68.3577 59.0431C71.1121 55.7341 72.386 41.4824 70.346 38.0531C70.0229 40.9904 69.6888 44.0294 69.3583 47.0351C67.5861 46.2712 67.2335 44.9098 67.4734 43.2618C67.5214 42.9307 67.4882 42.5848 67.4734 42.2463C67.4015 40.7536 67.3221 39.261 67.2445 37.7683C67.1171 37.7331 66.9916 37.698 66.8642 37.6629C65.631 40.1303 64.3978 42.5978 63.1092 45.178C63.0335 44.9487 62.9818 44.8673 62.9818 44.7859C63.0132 41.1014 63.4785 37.4723 64.396 33.9062C64.684 32.7835 65.572 32.1879 66.6169 31.5423C66.4784 32.4635 66.3639 33.2292 66.2402 34.0616C67.2925 33.4826 68.2101 32.924 69.1756 32.4653C70.1171 32.0177 71.0955 31.6348 72.0814 31.2945C73.0616 30.9541 74.0715 30.7007 75.0665 30.4103C75.0887 30.4714 75.1108 30.5306 75.1348 30.5916C74.7287 30.9319 74.3225 31.2704 73.9016 31.6219C74.0512 31.7476 74.0955 31.8179 74.1379 31.8179C77.3446 31.7569 80.3889 31.2945 82.7057 28.7087C83.195 28.1611 83.8873 27.6858 84.5796 27.4546C86.1617 26.9256 86.5088 26.6074 86.5586 24.8946C86.6158 22.8915 86.6435 20.8883 86.6786 18.8851C86.7063 17.3425 86.0952 16.1162 84.7771 15.3134C83.6233 14.6105 82.4528 13.9206 81.2362 13.3343C75.6924 10.656 69.8623 8.83404 63.8292 7.6632C61.3942 7.19154 58.9407 6.80311 56.3395 6.34809C56.6367 7.00472 56.8527 7.48379 57.0835 7.99614C54.5248 8.25879 54.2091 8.09972 52.4664 6.49977C51.6615 5.76175 50.7144 5.16061 49.7673 4.60941C49.4941 4.45034 48.8166 4.52803 48.6301 4.75369C47.0351 6.67178 47.3157 9.86615 49.0104 11.098C49.3981 11.3792 49.9354 11.4532 50.5907 11.6899C49.9975 10.0486 50.1987 9.0412 51.1944 8.66757C50.6959 8.2033 50.2104 7.78528 49.7729 7.32102C49.6104 7.149 49.5624 6.86785 49.4627 6.63664C49.7101 6.54046 49.9686 6.34254 50.2012 6.36844C50.552 6.40913 50.9304 6.54416 51.2184 6.74947C52.4701 7.64101 53.1236 8.93947 53.6867 10.3933C52.8762 10.4414 52.1895 10.4821 51.2535 10.5376C51.8239 10.9353 52.1821 11.1591 52.5107 11.4199C53.3008 12.0451 53.4079 12.6721 52.651 13.3417C52.1267 13.8041 51.3938 14.2628 50.7366 14.2887C49.507 14.3386 48.7981 14.9749 48.056 15.8128C42.5029 22.0869 38.0113 29.1008 33.6618 36.3625Z" fill="black"/>
<path d="M33.6621 36.3624C38.0115 29.1007 42.5031 22.0868 48.0563 15.8127C48.7984 14.9748 49.5073 14.3385 50.7368 14.2886C51.394 14.2608 52.1288 13.804 52.6512 13.3416C53.4082 12.672 53.3011 12.0449 52.5109 11.4198C52.1823 11.159 51.8242 10.937 51.2537 10.5375C52.1897 10.482 52.8765 10.4413 53.6869 10.3932C53.1238 8.93936 52.4703 7.63905 51.2187 6.74937C50.9307 6.54405 50.5522 6.41088 50.2014 6.36834C49.9688 6.34059 49.7104 6.5385 49.463 6.63654C49.5627 6.86774 49.6107 7.14889 49.7731 7.32091C50.2107 7.78518 50.6962 8.20135 51.1947 8.66746C50.199 9.0411 49.9978 10.0485 50.591 11.6898C49.9356 11.4531 49.3984 11.3791 49.0107 11.0979C47.316 9.86604 47.0354 6.67168 48.6304 4.75358C48.8169 4.52977 49.4944 4.45024 49.7676 4.60931C50.7147 5.16051 51.6636 5.76165 52.4666 6.49966C54.2094 8.09962 54.525 8.26054 57.0838 7.99604C56.853 7.48368 56.6352 7.00462 56.3398 6.34799C58.941 6.80116 61.3945 7.18958 63.8295 7.6631C69.8626 8.83393 75.6926 10.6558 81.2365 13.3342C82.4512 13.9224 83.6235 14.6104 84.7774 15.3133C86.0955 16.116 86.7065 17.3442 86.6789 18.885C86.6438 20.8882 86.6179 22.8914 86.5589 24.8945C86.509 26.6073 86.1619 26.9273 84.5798 27.4545C83.8875 27.6857 83.1952 28.161 82.706 28.7085C80.3891 31.2944 77.3449 31.7568 74.1382 31.8178C74.0957 31.8178 74.0514 31.7494 73.9019 31.6218C74.3228 31.2703 74.7289 30.93 75.1351 30.5915C75.1129 30.5305 75.0908 30.4713 75.0668 30.4102C74.0699 30.7025 73.0601 30.9559 72.0816 31.2944C71.0958 31.6366 70.1173 32.0176 69.1758 32.4652C68.2103 32.9239 67.2946 33.4825 66.2405 34.0615C66.3642 33.231 66.4805 32.4634 66.6171 31.5422C65.5741 32.1878 64.6861 32.7833 64.3962 33.9061C63.4787 37.4722 63.0153 41.1031 62.9821 44.7858C62.9821 44.8672 63.032 44.9486 63.1095 45.1779C64.3981 42.5995 65.6313 40.132 66.8645 37.6628C66.9919 37.6979 67.1174 37.733 67.2448 37.7682C67.3223 39.2609 67.4017 40.7535 67.4737 42.2462C67.4903 42.5847 67.5236 42.9306 67.4737 43.2617C67.2337 44.9097 67.5863 46.2711 69.3586 47.035C69.6891 44.0311 70.0232 40.9921 70.3463 38.053C72.3862 41.4823 71.1143 55.7321 68.358 59.043C68.1789 58.4178 68.0091 57.8222 67.8411 57.2285C66.342 61.307 64.2393 64.9379 60.9754 67.9676V59.6386C60.0763 59.4148 59.7348 59.7033 59.6129 60.4302C59.4745 61.2607 59.2456 62.0764 58.9576 62.8866C58.7767 60.1787 58.4407 57.5318 57.4585 55.0163C57.3736 55.0163 57.2868 55.0163 57.2019 55.0163C57.165 55.4176 57.0911 55.819 57.0948 56.2186C57.1742 64.3238 57.2555 72.429 57.3718 80.5342C57.3791 81.0207 57.6413 81.5275 57.8739 81.9806C58.1767 82.5707 58.568 83.1163 59.0683 83.9154C57.6801 83.9154 56.5336 83.9302 55.3909 83.8987C55.2229 83.8932 55.018 83.6934 54.9053 83.5306C53.5872 81.6458 52.6125 79.6482 52.3023 77.301C52.0937 75.7288 51.5011 74.2065 51.0691 72.6639C50.5467 70.8013 50.0094 68.9424 49.4796 67.0798C49.3744 67.0853 49.2692 67.089 49.1639 67.0946V72.6306C48.9978 72.6491 48.8335 72.6694 48.6673 72.6879C45.1911 63.6967 41.4047 54.7851 42.1561 44.6249C40.6607 45.8013 40.201 48.8292 40.3432 55.7395C37.838 52.4508 34.8695 50.1868 30.9815 49.3915C27.0733 48.5905 23.4475 49.2102 20.2371 51.8034C21.3836 51.7331 22.5282 51.6591 23.6746 51.5907C31.7754 51.0968 39.2558 56.8363 40.8324 64.7566C41.2275 66.7431 41.1167 68.7204 40.7899 70.6866C39.7266 68.1563 38.6706 65.6426 37.6146 63.127C37.5186 63.164 37.4226 63.201 37.3248 63.238C37.5703 64.7214 37.9728 66.1975 38.0282 67.6865C38.1278 70.3537 38.1352 73.0375 37.9395 75.6973C37.8583 76.7905 37.1531 77.8374 36.7322 78.9046C36.5753 78.8787 36.4165 78.8529 36.2596 78.827V74.2823C36.1544 74.2768 36.051 74.2731 35.9457 74.2675C34.9211 75.8527 35.1316 78.1722 33.2061 79.4133C32.8553 76.5371 32.5323 73.8976 32.211 71.2563C32.1077 71.26 32.0043 71.2637 31.9009 71.2674C31.0203 74.7041 30.1379 78.1407 29.2222 81.7124C29.7409 81.7476 30.0954 81.792 30.448 81.7938C34.0165 81.8068 37.5851 81.8049 41.1536 81.8253C42.649 81.8345 43.3542 82.4005 43.6662 83.8654C43.3062 83.8932 42.961 83.9431 42.6139 83.945C36.9537 83.9598 31.2935 83.9894 25.6333 83.9505C25.0555 83.9468 24.3669 83.649 23.9238 83.2643C22.1645 81.742 20.7688 79.9035 19.6372 77.8651C19.4618 77.5507 19.2513 77.2547 19.0556 76.9514L18.7178 77.042C18.9984 78.5421 19.2808 80.0403 19.5947 81.7124C17.5197 79.5502 16.0815 77.1419 15.3154 74.4118C14.5622 71.7298 14.0803 68.9701 13.4527 66.1346C13.5247 66.1438 13.377 66.1087 13.2293 66.1105C13.0834 66.1105 12.9376 66.1494 12.6958 66.1864V74.3915C11.4995 71.4246 10.7887 68.3153 10.8589 65.0673C10.929 61.8267 11.3887 58.6324 12.4022 55.5305C12.3358 55.4787 12.2711 55.4287 12.2047 55.377C11.5124 55.967 10.8201 56.5589 10.1537 57.1267C9.77704 54.5261 12.9985 46.3821 16.1203 42.2758C21.018 35.8316 27.5256 31.8326 35.4879 29.6038C34.4892 31.8585 33.5292 33.919 33.6621 36.3624ZM68.5352 14.6844C66.4436 11.3698 62.9858 10.8482 61.0289 13.5062C63.9421 16.2973 65.3341 16.523 68.5352 14.6844ZM85.3497 20.4461C85.3349 19.4362 84.4783 18.6371 83.4094 18.639C82.4014 18.639 81.5485 19.4565 81.5577 20.4147C81.567 21.432 82.4309 22.2403 83.4888 22.2199C84.5244 22.1996 85.3626 21.4005 85.3497 20.4461Z" fill="#F6F6F6"/>
<path d="M68.5352 14.6845C65.334 16.523 63.9421 16.2974 61.0289 13.5062C62.9858 10.8483 66.4454 11.3699 68.5352 14.6845Z" fill="black"/>
<path d="M85.3496 20.4462C85.3626 21.4006 84.5244 22.1996 83.4888 22.22C82.4309 22.2403 81.5651 21.432 81.5577 20.4147C81.5503 19.4566 82.4014 18.639 83.4094 18.639C84.4783 18.639 85.3349 19.4362 85.3496 20.4462Z" fill="black"/>
</g>
<defs>
<clipPath id="clip0_52_200">
<rect width="90" height="87.1579" fill="white"/>
</clipPath>
</defs>
</svg>
